PathFileType	4	(X/Y/Z)	C:\Users\Basilio\Documents\Thesis Gigler\squatting_fais\c3dfiles\073\SJ_pre5\markers_experimental.trc
DataRate	CameraRate	NumFrames	NumMarkers	Units	OrigDataRate	OrigDataStartFrame	OrigNumFrames
200.000000	200.000000	4	61	mm	200.000000	680	1360
Frame#	Time	FHD			LBHD			RBHD			C7			T10			CLAV			LSHO			LUUPA			LMUPA			LDUPA			LLEP			LMEP			LRAD			LUL			LRFIN			RSHO			RUPA1			RMUPA			RDUPA			RLEP			RMEP			RRAD			RUL			RUFIN			LASI			RASI			USACR			LSACR			RSACR			LTHI1			LTHI2			LTHI3			LTHI4			LLFC			LMFC			LTIB1			LTIB2			LTIB3			LTIB4			LLMAL			LMMAL			LHEE			LMT1			LMT2			LMT5			RTHI			RTHI2			RTHI3			RTHI4			RLFC			RMFC			RTIB1			RTIB2			RTIB3			RTIB4			RLMAL			RMMAL			RHEE			RMT1			RMT2			RMT5			
		X1	Y1	Z1	X2	Y2	Z2	X3	Y3	Z3	X4	Y4	Z4	X5	Y5	Z5	X6	Y6	Z6	X7	Y7	Z7	X8	Y8	Z8	X9	Y9	Z9	X10	Y10	Z10	X11	Y11	Z11	X12	Y12	Z12	X13	Y13	Z13	X14	Y14	Z14	X15	Y15	Z15	X16	Y16	Z16	X17	Y17	Z17	X18	Y18	Z18	X19	Y19	Z19	X20	Y20	Z20	X21	Y21	Z21	X22	Y22	Z22	X23	Y23	Z23	X24	Y24	Z24	X25	Y25	Z25	X26	Y26	Z26	X27	Y27	Z27	X28	Y28	Z28	X29	Y29	Z29	X30	Y30	Z30	X31	Y31	Z31	X32	Y32	Z32	X33	Y33	Z33	X34	Y34	Z34	X35	Y35	Z35	X36	Y36	Z36	X37	Y37	Z37	X38	Y38	Z38	X39	Y39	Z39	X40	Y40	Z40	X41	Y41	Z41	X42	Y42	Z42	X43	Y43	Z43	X44	Y44	Z44	X45	Y45	Z45	X46	Y46	Z46	X47	Y47	Z47	X48	Y48	Z48	X49	Y49	Z49	X50	Y50	Z50	X51	Y51	Z51	X52	Y52	Z52	X53	Y53	Z53	X54	Y54	Z54	X55	Y55	Z55	X56	Y56	Z56	X57	Y57	Z57	X58	Y58	Z58	X59	Y59	Z59	X60	Y60	Z60	X61	Y61	Z61	

681	3.4	121.7548980712891	1014.186340332031	-973.0883789062502	-15.87796211242676	1001.557250976563	-994.5345458984377	-40.21627426147462	993.6895141601565	-861.3005371093752	-70.1626434326172	954.9815063476565	-926.084655761719	-373.9125976562501	830.8361816406252	-925.8377685546877	-47.54986953735352	798.2346191406252	-925.434509277344	-33.42505645751954	823.493835449219	-1088.190063476563	-111.6726608276367	822.489196777344	-1221.343872070313	-143.0447235107422	782.5625000000002	-1227.401611328125	-152.8524475097657	815.8530883789065	-1277.543701171875	-241.4302215576172	794.7552490234377	-1342.164794921875	-285.8419799804688	867.6001586914065	-1334.382446289063	-432.0270385742189	716.1734008789064	-1167.534423828125	-410.6539611816407	651.8916625976564	-1198.717651367188	-419.1666259765626	705.3024902343751	-1106.53076171875	-40.82205963134766	815.170837402344	-763.4321899414064	-132.9530181884766	838.5991210937502	-617.9810180664064	-165.296142578125	802.3662109375002	-607.5226440429689	-181.4985656738282	845.005310058594	-567.9611816406251	-261.7474060058594	826.177185058594	-515.4100341796876	-312.7894592285157	894.8001098632815	-558.1763305664064	-459.5344238281251	726.4635009765626	-673.5482788085939	-435.2159423828126	663.1913452148439	-639.0193481445314	-421.4374389648439	703.5306396484376	-732.4809570312501	-407.5124816894532	639.6441650390626	-1058.715942382813	-403.4347534179689	606.1329956054689	-817.886657714844	-490.6793518066407	782.1975097656252	-915.2773437500002	-521.0730590820314	774.2108154296877	-942.4707641601565	-522.6184082031251	769.5534667968752	-887.3568115234377	-320.0175781250001	537.0056152343751	-1169.916748046875	-234.2348022460938	530.8096923828126	-1176.168823242188	-210.9996948242188	561.9398193359376	-1145.185302734375	-204.0066833496094	476.5840454101564	-1176.929931640625	-169.4183654785157	437.9667358398439	-1182.738891601563	-153.2210540771485	417.8429565429689	-1059.086669921875	-193.8858489990235	247.6680603027344	-1150.70263671875	-269.0978698730469	250.5740509033204	-1198.954467773438	-238.8415832519532	223.0958251953126	-1181.664306640625	-280.7253723144532	155.8145141601563	-1150.242553710938	-397.470672607422	88.20969390869142	-1180.28662109375	-374.8135070800782	102.2215805053711	-1092.642700195313	-460.7356262207032	54.23965072631837	-1137.73876953125	-231.1347045898438	53.32661437988283	-1129.856811523438	-235.7871704101563	53.0121421813965	-1167.926025390625	-275.7333984375001	35.82352828979493	-1220.099731445313	-400.6371459960939	546.0531005859376	-692.5343627929689	-335.0968627929688	546.4161987304689	-685.1782226562501	-316.7473144531251	573.1567993164064	-693.3059692382814	-283.8200683593751	481.5554504394532	-678.8084716796876	-166.3629455566407	412.8654174804689	-672.8676757812501	-147.9906005859375	390.0056762695314	-791.3781738281252	-192.4603118896485	254.7708129882813	-746.9752197265626	-263.3948974609376	209.3285827636719	-678.1052856445314	-243.5259552001954	191.2422790527344	-718.4075317382814	-283.3655700683594	162.5193176269532	-747.8011474609376	-399.0732727050782	85.56899261474611	-687.8667602539064	-378.9554748535157	94.96033477783205	-777.102233886719	-472.2704467773439	48.204158782959	-743.1971435546876	-243.2412872314454	54.11950683593751	-713.2588500976564	-250.8678741455079	54.89252853393556	-673.2493286132814	-298.7808837890626	35.2658805847168	-630.5618286132814	
682	3.405	121.7707214355469	1018.673461914063	-973.1790161132815	-16.53812217712403	1005.504638671875	-994.3846435546877	-40.59234619140626	997.5288085937502	-860.9033203125002	-70.4485549926758	958.685729980469	-925.8499755859377	-373.7245788574219	833.1655273437502	-925.5737304687502	-47.40388488769532	802.0202636718752	-925.4509887695315	-33.24662017822266	827.3107910156252	-1088.0009765625	-111.7025527954102	826.0247802734377	-1221.357788085938	-142.6224365234375	786.1560058593752	-1227.572631835938	-152.211654663086	819.715759277344	-1277.856567382813	-241.1400756835938	797.6563720703127	-1341.882202148438	-286.0370483398438	870.2416992187502	-1334.266967773438	-431.2699584960939	717.7990722656251	-1167.519653320313	-409.5279846191407	653.6539306640626	-1198.825561523438	-419.0406799316407	707.0024414062501	-1107.139038085938	-40.47515869140626	818.8410644531252	-763.3769531250001	-132.5848236083985	841.4857177734377	-617.4318847656251	-164.9182586669922	804.9814453125002	-607.4977416992189	-181.281723022461	847.4282226562502	-567.7723388671876	-261.3576354980469	828.099792480469	-515.2137451171876	-312.7555847167969	896.6069335937502	-557.7191162109376	-458.8789062500001	727.6345825195314	-673.3474731445314	-434.2348937988282	664.4771728515626	-638.9323120117189	-420.4010620117189	704.8338623046876	-732.2265625000001	-407.1296691894532	641.7214965820314	-1059.078247070313	-402.8594055175782	607.8656005859376	-818.2939453125002	-489.909149169922	784.201110839844	-915.283142089844	-520.4877929687501	776.2481689453127	-942.564147949219	-521.9097900390626	771.5377197265627	-887.4552001953127	-318.8740234375001	537.8467407226564	-1169.524169921875	-233.1976318359376	531.2025756835939	-1175.445190429688	-209.8321228027344	562.1188354492189	-1144.5634765625	-203.1767120361329	476.7621459960939	-1176.203491210938	-168.9219055175782	438.003387451172	-1182.071899414063	-153.1859130859375	417.793914794922	-1058.459350585938	-193.6526184082032	247.4962158203126	-1150.087158203125	-268.7448425292969	250.4934692382813	-1198.447265625	-238.5596313476563	223.0658416748047	-1181.39404296875	-280.5798950195313	155.7203674316407	-1149.93701171875	-397.4729003906251	88.22224426269533	-1180.359130859375	-374.7916259765626	102.1801300048828	-1092.615844726563	-460.6628417968751	54.27796936035158	-1137.842041015625	-231.1161346435547	53.29921340942384	-1129.846801757813	-235.7099761962891	53.0735549926758	-1167.923706054688	-275.7275085449219	35.85399246215821	-1220.107543945313	-399.8912658691407	547.0818481445314	-692.8769531250001	-334.2966003417969	547.0827026367189	-685.3041992187501	-315.9557800292969	573.8020629882814	-693.5551757812501	-283.2669677734376	482.1101684570314	-679.2565917968751	-166.2043151855469	412.9472656250001	-673.2680664062501	-147.78857421875	390.1144409179689	-791.808776855469	-192.3196105957032	254.7146759033204	-747.2917480468751	-263.3287658691407	209.3545989990235	-678.3266601562501	-243.3189086914063	191.2447052001953	-718.5548095703126	-283.1297607421876	162.4364929199219	-747.8995971679689	-399.0320434570314	85.64515686035158	-687.8822021484376	-378.8662414550782	94.93450927734376	-777.173522949219	-472.1932373046876	48.30207824707033	-743.1765747070314	-243.1786346435547	54.10508346557619	-713.2354125976564	-250.8393859863282	54.88002014160158	-673.2503051757814	-298.7695922851563	35.25625610351563	-630.5675659179689	
683	3.41	120.5286483764649	1023.497619628906	-973.3096313476565	-17.12621879577637	1009.60498046875	-994.2985839843752	-40.95556640625001	1001.606323242188	-860.8508911132815	-70.69724273681642	962.6818847656252	-925.6621704101565	-373.5664062500001	835.5908203125002	-925.3084106445315	-47.10380935668946	806.1115722656252	-925.1980590820315	-33.18023300170899	831.1818847656252	-1087.975341796875	-111.6257400512696	829.9274902343752	-1221.40185546875	-142.373275756836	789.8398437500002	-1227.488037109375	-152.4061279296875	823.5139770507815	-1277.717163085938	-240.6254577636719	800.774597167969	-1342.180297851563	-286.3750610351563	873.160583496094	-1334.098388671875	-430.3777465820314	719.4397583007814	-1167.6455078125	-408.2301635742189	655.4493408203126	-1198.8203125	-414.8399353027345	707.1467285156251	-1106.935791015625	-40.25491333007813	822.7028808593752	-763.2869873046876	-132.4438934326172	844.5534667968752	-617.3076171875001	-164.4500885009766	807.8950805664065	-607.3496093750001	-181.0724487304688	850.0390625000002	-567.4965820312501	-261.0824584960938	830.1577148437502	-515.0173950195314	-312.9024047851563	898.4532470703127	-557.2152709960939	-458.0981445312501	728.9910888671876	-673.1643066406251	-433.3684082031251	665.8532714843751	-638.8233642578126	-419.801727294922	706.4336547851564	-732.0783691406251	-406.1586303710939	644.7250976562501	-1059.6484375	-402.0384521484376	609.7182006835939	-819.019470214844	-489.1875000000001	786.4456176757815	-915.3303833007815	-519.7062988281251	778.577331542969	-942.3983154296877	-521.2716064453126	773.584167480469	-887.5655517578127	-317.6766052246094	538.8023681640626	-1169.118774414063	-232.1531066894532	531.5761108398439	-1174.908813476563	-208.7994079589844	562.3755493164064	-1143.955688476563	-202.4327087402344	476.9839477539064	-1175.542846679688	-168.2764739990235	437.9990844726564	-1181.376342773438	-153.1038055419922	417.7174072265626	-1057.7080078125	-193.4076232910157	247.3746337890626	-1149.574829101563	-268.4560852050782	250.543685913086	-1197.963989257813	-238.9810333251954	222.7066497802735	-1181.272827148438	-280.3955993652344	155.6013336181641	-1149.701904296875	-397.4187927246095	88.32984924316408	-1180.344970703125	-374.7887878417969	102.165885925293	-1092.563842773438	-460.6666870117189	54.30946731567384	-1137.9296875	-231.0947570800782	53.27440261840822	-1129.828857421875	-235.6499176025391	53.06365966796876	-1167.9013671875	-275.7070922851563	35.83554077148438	-1220.097534179688	-399.0936584472657	548.0996704101564	-693.1159667968751	-333.3843994140626	547.8918457031251	-685.7451782226564	-315.0758056640626	574.5122680664064	-694.1147460937501	-282.7405090332032	482.6946716308595	-679.7075805664064	-166.0687866210938	413.0343627929689	-673.7390136718751	-147.3377685546875	390.268280029297	-792.497497558594	-192.1763916015626	254.6670684814454	-747.4685058593751	-263.2155761718751	209.3851928710938	-678.5612182617189	-243.208236694336	191.2099151611328	-718.7449340820314	-283.0331115722657	162.4496002197266	-748.0446777343751	-399.0220642089845	85.73823547363283	-687.9129028320314	-378.7546081542969	94.94190979003908	-777.1995239257815	-472.1476440429689	48.40417480468751	-743.1981811523439	-243.0939483642579	54.09310150146486	-713.2102661132814	-250.8480529785157	54.80432891845705	-673.2185058593751	-298.7753906250001	35.23974609375001	-630.5630493164064	
684	3.415	119.7805404663086	1028.497680664063	-973.3175048828127	-17.85944747924805	1014.163818359375	-994.0411376953127	-41.47158813476563	1005.986450195313	-860.5838012695315	-71.10887908935548	966.8853149414065	-925.4536132812502	-373.3276367187501	838.1466064453127	-925.040710449219	-46.87877273559571	810.463562011719	-925.132995605469	-33.15399551391602	835.7799072265627	-1087.775512695313	-111.5125045776367	833.9697875976565	-1221.21484375	-142.258285522461	793.6550292968752	-1227.338745117188	-152.3243103027344	827.6282958984377	-1277.825927734375	-240.4060821533204	804.1439208984377	-1342.256225585938	-286.5815429687501	876.1479492187502	-1333.989990234375	-428.9783935546876	721.1403808593751	-1167.59814453125	-407.0371093750001	657.4702758789064	-1198.987182617188	-412.2344665527345	709.1895141601564	-1106.569702148438	-39.95849990844727	826.9177246093752	-763.3627929687501	-132.2447509765625	847.8317871093752	-617.0428466796876	-164.1679840087891	810.9912109375002	-607.2076416015626	-180.9899291992188	852.9107666015627	-567.2162475585939	-260.8239440917969	832.3758544921877	-514.7935791015626	-313.0045471191407	900.5771484375002	-556.8256225585939	-457.1817932128907	730.4827880859376	-672.9426879882814	-432.3062744140626	667.3657836914064	-638.6221313476564	-418.7906799316407	707.9634399414064	-731.7571411132814	-404.9573669433595	647.1101684570314	-1059.511596679688	-401.225311279297	611.9136352539064	-818.8973388671877	-488.4046325683595	788.6379394531252	-915.2131958007815	-518.7899169921876	780.7972412109377	-942.403015136719	-520.4451293945314	775.7481079101565	-887.4707031250002	-316.6187133789063	539.7220458984376	-1168.675048828125	-231.1360015869141	532.0704956054689	-1174.247192382813	-207.4700622558594	562.7105712890626	-1143.166259765625	-201.7367553710938	477.2760620117189	-1174.782104492188	-167.8282012939453	438.0220336914064	-1180.694213867188	-155.0358123779297	417.4219970703126	-1058.691040039063	-193.2201690673829	247.258773803711	-1149.12060546875	-268.1613464355469	250.4670410156251	-1197.520874023438	-238.7173309326172	222.634017944336	-1180.883422851563	-280.2167358398438	155.5223083496094	-1149.361450195313	-397.3523864746095	88.41941070556642	-1180.363159179688	-374.7636108398438	102.1062622070313	-1092.512329101563	-460.6578063964845	54.38412094116212	-1137.9921875	-230.8190002441407	53.38926315307619	-1129.737548828125	-235.8074188232422	52.9579429626465	-1167.947631835938	-275.6115417480469	35.88216400146485	-1220.048828125	-398.2574768066407	549.2840576171876	-693.5548095703126	-332.4856872558594	548.8561401367189	-685.9023437500001	-314.0119934082032	575.3153076171876	-694.3720092773439	-282.1184082031251	483.3003540039064	-680.0385742187501	-165.8589935302735	413.1058349609376	-674.2922973632814	-147.2413635253907	390.3518676757814	-793.0552368164065	-192.0884094238282	254.6495513916016	-747.7260742187501	-263.0223083496094	209.4272766113282	-678.8206787109376	-243.0342407226563	191.182601928711	-718.9490966796876	-282.9955444335938	162.4714965820313	-748.2940673828126	-399.0020751953126	85.84519195556642	-687.9526367187501	-378.7382812500001	94.94879150390626	-777.2760009765627	-472.1039123535157	48.50868606567384	-743.2233886718751	-243.0895080566407	54.0874710083008	-713.2034301757814	-250.8022918701172	54.7749366760254	-673.2226562500001	-298.7662963867188	35.23809432983399	-630.5651245117189	
